<?xml version="1.0" encoding="UTF-8"?>
<svg version="1.1" xmlns="http://www.w3.org/2000/svg" width="48" height="46" viewBox="0 0 48 46">
<path d="M0 0 C1.33121343 1.00282031 2.66418834 2.00331299 4 3 C4.67204468 2.35768433 4.67204468 2.35768433 5.35766602 1.70239258 C7.42168497 -0.26542774 9.49202356 -2.22647605 11.5625 -4.1875 C12.61920898 -5.19780273 12.61920898 -5.19780273 13.69726562 -6.22851562 C17.92286703 -10.22044322 22.18465193 -13.74125591 27 -17 C27.556875 -16.278125 28.11375 -15.55625 28.6875 -14.8125 C32.26375873 -10.46299614 36.3624575 -6.63622425 40.40377808 -2.72447205 C42.64940024 -0.54604726 44.88150391 1.64602719 47.11328125 3.83862305 C48.2941515 4.99412815 49.47943635 6.14513782 50.66894531 7.29174805 C52.3926479 8.95504049 54.09989458 10.63376558 55.8046875 12.31640625 C56.341008 12.82692032 56.87732849 13.33743439 57.42990112 13.86341858 C58.89794922 15.33032227 58.89794922 15.33032227 61 18 C60.88870603 21.88292285 58.64795059 23.69503228 55.9375 26.3125 C55.11894531 27.10398438 54.30039063 27.89546875 53.45703125 28.7109375 C51.37200739 30.65342395 49.27076114 32.56273561 47.125 34.4375 C46.49207031 35.00597656 45.85914063 35.57445312 45.20703125 36.16015625 C43 38 43 38 39.94921875 40.05859375 C36.60726264 42.52656383 34.25770885 44.49943361 32 48 C31.91152198 53.28265835 33.07804638 57.9035146 34.47216797 62.96923828 C40.15602996 84.83712173 32.96528422 110.96149859 21.9453125 130.01171875 C6.47173265 153.78137454 -14.99094009 168.74723169 -42 177 C-42.99 177.3196875 -43.98 177.639375 -45 177.96875 C-71.07199992 185.00818998 -100.06497534 179.72566763 -123.4921875 167.12109375 C-148.95490703 152.00832856 -166.12854772 131.82495415 -174 103 C-180.20359877 77.21535 -176.58931072 49.34615825 -163.1171875 26.3828125 C-147.94906931 2.14740594 -125.79698484 -15.42445519 -97.81640625 -22.22265625 C-62.20246611 -29.47667272 -28.46961672 -22.65949086 0 0 Z " fill="#F5A122" transform="translate(192,36)"/>
<path d="M0 0 C3.66602289 2.99267175 7.02526361 5.91172054 10.05859375 9.546875 C12.99307804 12.94844932 16.08859358 16.10581674 19.3125 19.234375 C20.24191406 20.13800781 21.17132813 21.04164062 22.12890625 21.97265625 C23.57792897 23.37436394 25.02720064 24.77587944 26.48779297 26.16552734 C27.91962978 27.53109733 29.33511904 28.91374453 30.75 30.296875 C31.59046875 31.10479492 32.4309375 31.91271484 33.296875 32.74511719 C35 35 35 35 34.87719727 37.16186523 C33.65233802 39.72851295 31.98059698 41.33949211 29.9375 43.3125 C29.11765625 44.10527344 28.2978125 44.89804687 27.453125 45.71484375 C24.75369743 48.2294379 22.00544572 50.67020883 19.2109375 53.078125 C11.36516131 59.89812833 3.89055613 67.04413478 -3.41577148 74.43505859 C-6.84553873 77.89022384 -10.36510698 81.15786696 -14.0859375 84.30078125 C-17.26483139 87.12286052 -20.17740579 90.20952277 -23.1171875 93.27734375 C-25 95 -25 95 -27 95 C-27.21269531 95.54914063 -27.42539063 96.09828125 -27.64453125 96.6640625 C-29.47204503 99.81349547 -31.99628594 101.98201551 -34.6875 104.375 C-35.88054822 105.45795901 -37.07324347 106.54130698 -38.265625 107.625 C-38.88501953 108.18445313 -39.50441406 108.74390625 -40.14257812 109.3203125 C-50.83062475 118.98563332 -61.11516093 129.0187051 -71.23608398 139.27294922 C-75.72077905 143.80026289 -80.24611225 148.16889616 -85.08618164 152.31323242 C-88.54592982 155.36252444 -91.76133507 158.65698354 -95 161.9375 C-95.67933594 162.62134766 -96.35867187 163.30519531 -97.05859375 164.00976562 C-98.70808359 165.67087159 -100.3551668 167.33428513 -102 169 C-106.16031905 165.5100003 -110.14462758 161.95634739 -113.9375 158.0625 C-117.58282187 154.37285811 -121.32196083 150.89424744 -125.2578125 147.51953125 C-127.62238029 145.45716159 -129.8118704 143.24726824 -132 141 C-133.66605933 139.33272622 -135.33279695 137.66613011 -137 136 C-138.60075871 134.38851566 -140.20100587 132.77652304 -141.80078125 131.1640625 C-143.63794865 129.31763651 -145.47519045 127.47128454 -147.3125 125.625 C-148.22451172 124.70460938 -149.13652344 123.78421875 -150.07617188 122.8359375 C-154.60806013 118.28780592 -159.18450798 113.89299786 -164.05932617 109.71582031 C-167.70007744 106.4968997 -171.08564614 103.01795256 -174.5 99.5625 C-175.22703125 98.83095703 -175.9540625 98.09941406 -176.703125 97.34570312 C-178.47109499 95.56610176 -180.23666378 93.78419082 -182 92 C-178.29805286 84.09772667 -170.53684996 78.37054574 -163.99609375 72.77734375 C-160.94567102 70.06121392 -158.12101135 67.12965151 -155.25390625 64.22265625 C-151.97227537 60.98652458 -148.50487859 57.9894075 -145 55 C-139.68931195 59.43416672 -134.75163383 64.11516686 -129.87890625 69.0234375 C-129.13414536 69.76961334 -128.38938446 70.51578918 -127.62205505 71.28457642 C-125.26649173 73.64569389 -122.91444784 76.01028162 -120.5625 78.375 C-118.95661237 79.98590856 -117.35049484 81.59658796 -115.74414062 83.20703125 C-111.82676487 87.13537513 -107.91226513 91.06656674 -104 95 C-101.0206803 93.56722769 -98.8471682 92.12430471 -96.453125 89.83203125 C-95.78071777 89.19322021 -95.10831055 88.55440918 -94.41552734 87.89624023 C-93.70090332 87.20860596 -92.9862793 86.52097168 -92.25 85.8125 C-90.72682278 84.36170585 -89.20337862 82.91119192 -87.6796875 81.4609375 C-86.90463867 80.72069336 -86.12958984 79.98044922 -85.33105469 79.21777344 C-81.06500628 75.15904033 -76.7517309 71.15059797 -72.44238281 67.13793945 C-68.76300021 63.69807478 -65.16424187 60.19588159 -61.63208008 56.60473633 C-59.28119626 54.29323904 -56.7884444 52.1605826 -54.29296875 50.0078125 C-51.53093985 47.58927271 -48.82607436 45.11103156 -46.125 42.625 C-32.07678361 29.70727787 -32.07678361 29.70727787 -26.25 24.875 C-23.94182341 22.9219275 -21.98913898 20.89202863 -20.0625 18.5625 C-16.75440061 14.57177693 -12.938871 11.34981461 -9 8 C-7.32990458 6.52470576 -5.66321084 5.04555142 -4 3.5625 C-2.8553125 2.54349609 -2.8553125 2.54349609 -1.6875 1.50390625 C-1.130625 1.00761719 -0.57375 0.51132812 0 0 Z " fill="#615C24" transform="translate(218,19)"/>
<path d="M0 0 C0.66 0.33 1.32 0.66 2 1 C8.06399666 22.70272489 6.79193422 44.97367368 -1 66 C-1.33 66 -1.66 66 -2 66 C-1.59121162 57.83499006 -1.18410392 49.91037639 1 42 C1.26296875 41.01386719 1.5259375 40.02773437 1.796875 39.01171875 C2.51737256 36.3370415 3.2522009 33.66715013 4 31 C3.34 31 2.68 31 2 31 C1.83012319 29.12528812 1.66425224 27.25021305 1.5 25.375 C1.4071875 24.33085938 1.314375 23.28671875 1.21875 22.2109375 C1.00875645 19.12853212 0.96290273 16.08834771 1 13 C-2.34329469 11.80648688 -2.34329469 11.80648688 -6 11 C-6.99 11.66 -7.98 12.32 -9 13 C-9.66 12.34 -10.32 11.68 -11 11 C-7.37 7.37 -3.74 3.74 0 0 Z " fill="#F3A327" transform="translate(222,85)"/>
<path d="M0 0 C1.42341471 0.88507196 2.83843784 1.78364488 4.25 2.6875 C5.03890625 3.18636719 5.8278125 3.68523438 6.640625 4.19921875 C9.25151182 6.19196515 11.04779673 8.37168964 13 11 C12.28457031 11.65484375 11.56914062 12.3096875 10.83203125 12.984375 C9.82551665 13.90624544 8.81900661 14.82812084 7.8125 15.75 C7.28092285 16.23645996 6.7493457 16.72291992 6.20166016 17.22412109 C3.25039846 19.92750779 0.30795312 22.63973495 -2.62109375 25.3671875 C-3.20673096 25.91149414 -3.79236816 26.45580078 -4.39575195 27.01660156 C-5.5353624 28.0765696 -6.67326482 29.13837741 -7.80932617 30.20214844 C-11.77703795 33.88851897 -11.77703795 33.88851897 -14 35 C-14 34.01 -14 33.02 -14 32 C-12.53311963 30.72445185 -11.06023134 29.45118883 -9.5078125 28.28125 C-7.72500021 26.88527155 -7.72500021 26.88527155 -6 24 C-5.34 24 -4.68 24 -4 24 C-3.67 23.01 -3.34 22.02 -3 21 C-2.01 21 -1.02 21 0 21 C-0.020625 19.948125 -0.04125 18.89625 -0.0625 17.8125 C-0.01103198 14.67295096 0.26517187 12.03116604 1 9 C2.32 9 3.64 9 5 9 C5.66 9.66 6.32 10.32 7 11 C5.65044165 6.46057646 4.00418704 5.31821355 0 3 C0 2.01 0 1.02 0 0 Z " fill="#E8A231" transform="translate(183,30)"/>
<path d="M0 0 C6.55377097 5.38640924 12.47246635 11.35885127 18.4375 17.375 C19.46525983 18.40778595 20.49325285 19.44033991 21.52148438 20.47265625 C24.01701598 22.97910287 26.50938082 25.4886708 29 28 C28.01 28.33 27.02 28.66 26 29 C25.443125 28.278125 24.88625 27.55625 24.3125 26.8125 C19.85210617 21.3876967 14.63898733 16.83928458 9.40234375 12.18359375 C7 10 7 10 4.86328125 7.73828125 C3.08644051 5.72450748 3.08644051 5.72450748 0.25 5.75 C-0.4925 5.8325 -1.235 5.915 -2 6 C-2.33 6.66 -2.66 7.32 -3 8 C-3.99 8 -4.98 8 -6 8 C-6.33 8.99 -6.66 9.98 -7 11 C-8.051875 11.61875 -8.051875 11.61875 -9.125 12.25 C-13.00626274 14.61250776 -15.884161 17.72253246 -19 21 C-19.66 20.67 -20.32 20.34 -21 20 C-14.19232082 13.09892279 -7.42764058 6.24255076 0 0 Z " fill="#785A0D" transform="translate(73,74)"/>
<path d="M0 0 C2.0625 0.4375 2.0625 0.4375 4 1 C-21.50039935 12.64763252 -48.29224653 17.91650099 -76 10 C-76 9.67 -76 9.34 -76 9 C-72.7 9 -69.4 9 -66 9 C-66 9.66 -66 10.32 -66 11 C-61.85571691 11.02488484 -57.71147446 11.04294686 -53.56713867 11.05493164 C-52.15990439 11.0599327 -50.75267523 11.0667357 -49.34545898 11.07543945 C-47.31232431 11.08769159 -45.27925886 11.0932707 -43.24609375 11.09765625 C-42.02591553 11.10289307 -40.8057373 11.10812988 -39.54858398 11.11352539 C-34.26694622 10.94455659 -29.38114865 10.32209534 -24.4375 8.4375 C-20.83262195 7.1659163 -17.85822174 6.70321371 -14 7 C-14 6.34 -14 5.68 -14 5 C-13.07316406 4.72285156 -12.14632812 4.44570312 -11.19140625 4.16015625 C-9.99386719 3.79792969 -8.79632813 3.43570313 -7.5625 3.0625 C-6.36753906 2.70285156 -5.17257813 2.34320313 -3.94140625 1.97265625 C-1.14132455 1.29110858 -1.14132455 1.29110858 0 0 Z " fill="#DAA043" transform="translate(169,203)"/>
<path d="M0 0 C0 5.01694541 -3.21281491 8.11189375 -6.4375 11.75 C-9 14 -9 14 -11.29003906 14.79101562 C-14.85918333 16.38330413 -17.23239887 18.84015654 -19.921875 21.59375 C-20.46732971 22.14107788 -21.01278442 22.68840576 -21.57476807 23.25231934 C-22.721184 24.40543417 -23.86400829 25.56212966 -25.00341797 26.72216797 C-26.75102107 28.50103934 -28.50917599 30.26891187 -30.26953125 32.03515625 C-31.38344049 33.15823165 -32.49674326 34.28190896 -33.609375 35.40625 C-34.13537292 35.9364978 -34.66137085 36.46674561 -35.20330811 37.01306152 C-37.93684246 39.75566958 -37.93684246 39.75566958 -40 43 C-41.32 42.67 -42.64 42.34 -44 42 C-43.40058594 41.47277344 -42.80117187 40.94554687 -42.18359375 40.40234375 C-33.5631965 32.66483213 -25.41117895 24.47770687 -17.27514648 16.23803711 C-12.02514083 10.9347347 -6.68857179 5.83165176 -1 1 C-0.67 0.67 -0.34 0.34 0 0 Z " fill="#E0A23A" transform="translate(179,126)"/>
<path d="M0 0 C0.33 0 0.66 0 1 0 C3.35157308 17.12834985 0.97667932 33.87209055 -5 50 C-5.33 50 -5.66 50 -6 50 C-5.52030636 40.41875065 -4.56716004 31.58338005 -1.97265625 22.33984375 C-0.82606077 17.74225729 -0.55953226 13.22095039 -0.375 8.5 C-0.33632812 7.67757812 -0.29765625 6.85515625 -0.2578125 6.0078125 C-0.16468308 4.0055299 -0.08131015 2.00279738 0 0 Z " fill="#E0A040" transform="translate(226,101)"/>
<path d="M0 0 C0.6875 1.625 0.6875 1.625 1 4 C0.03685937 6.01800895 -0.96958573 8.01549844 -2 10 C-2.78856671 12.64697235 -3.38149818 15.30509919 -4 18 C-4.33 18.99 -4.66 19.98 -5 21 C-5.66 21 -6.32 21 -7 21 C-6.97679687 21.58265625 -6.95359375 22.1653125 -6.9296875 22.765625 C-6.70930017 32.77750649 -8.73487102 42.29230437 -11 52 C-11.33 52 -11.66 52 -12 52 C-11.57052486 33.63993794 -8.53179353 16.47653704 0 0 Z " fill="#E4AD53" transform="translate(27,66)"/>
<path d="M0 0 C4.60798106 2.04799158 8.70082381 5.17990126 12 9 C12 9.66 12 10.32 12 11 C12.99 11 13.98 11 15 11 C15.33 11.99 15.66 12.98 16 14 C17.42866392 15.19609072 18.86127847 16.38802501 20.3203125 17.546875 C22.67242159 19.58172286 24.57270687 21.91173671 26.55859375 24.296875 C29.68511648 27.99108614 33.04323036 31.21560655 37 34 C36.67 34.99 36.34 35.98 36 37 C30.86957465 31.89483498 25.74299922 26.78582802 20.61914062 21.67407227 C18.87394182 19.93391645 17.12784853 18.19465726 15.38085938 16.45629883 C12.87657281 13.96407941 10.3754728 11.46870129 7.875 8.97265625 C7.08754395 8.19036148 6.30008789 7.40806671 5.48876953 6.60206604 C4.76802246 5.8813945 4.04727539 5.16072296 3.3046875 4.41821289 C2.66515137 3.78089737 2.02561523 3.14358185 1.36669922 2.48695374 C0 1 0 1 0 0 Z " fill="#DDA03A" transform="translate(75,75)"/>
<path d="M0 0 C0.99 0 1.98 0 3 0 C1.42184223 4.07451641 -1.50037181 6.5424687 -4.6875 9.375 C-5.85737064 10.43293086 -7.02661495 11.49155462 -8.1953125 12.55078125 C-8.81180664 13.10717285 -9.42830078 13.66356445 -10.06347656 14.23681641 C-14.08126271 17.89496713 -18.02258856 21.63648166 -21.97338867 25.36669922 C-24.87465315 28.08851613 -27.73395632 30.711326 -31 33 C-30.67 31.35 -30.34 29.7 -30 28 C-29.01 28 -28.02 28 -27 28 C-27 27.34 -27 26.68 -27 26 C-25.42578125 24.44921875 -25.42578125 24.44921875 -23.3125 22.6875 C-20.80197706 20.56355316 -18.39176579 18.44498656 -16.125 16.0625 C-14 14 -14 14 -12 14 C-11.67 13.01 -11.34 12.02 -11 11 C-10.34 11 -9.68 11 -9 11 C-9 10.34 -9 9.68 -9 9 C-7.28515625 7.34375 -7.28515625 7.34375 -5.0625 5.5 C-2.07954821 3.11073001 -2.07954821 3.11073001 0 0 Z " fill="#77580D" transform="translate(188,114)"/>
<path d="M0 0 C1.32 0.33 2.64 0.66 4 1 C4 1.66 4 2.32 4 3 C4.5775 3.268125 5.155 3.53625 5.75 3.8125 C8.05550043 5.02929189 10.02056192 6.30333879 12 8 C12 8.66 12 9.32 12 10 C12.66 10 13.32 10 14 10 C14.33 10.66 14.66 11.32 15 12 C15.99 12.33 16.98 12.66 18 13 C18 13.99 18 14.98 18 16 C18.66 16 19.32 16 20 16 C20.33 15.01 20.66 14.02 21 13 C23 15 23 15 23 18 C23.99 18.33 24.98 18.66 26 19 C24.68 19.99 23.36 20.98 22 22 C21.5467334 21.54149658 21.0934668 21.08299316 20.62646484 20.6105957 C18.54535219 18.50852869 16.46021539 16.41049692 14.375 14.3125 C13.66214844 13.59126953 12.94929688 12.87003906 12.21484375 12.12695312 C9.06586345 8.96352797 5.93545608 5.86844355 2.4765625 3.04296875 C1.65929687 2.36878906 0.84203125 1.69460937 0 1 C0 0.67 0 0.34 0 0 Z " fill="#715812" transform="translate(93,166)"/>
<path d="M0 0 C2.7617855 3.13738833 3.38251784 5.22960455 3.5625 9.375 C3.76786415 12.60948532 4.01298843 15.03820126 5.0625 18.125 C6.35977475 22.10330924 6.16591551 25.85211219 6 30 C3.74688626 26.62032939 2.8464435 23.38216938 1.875 19.5 C1.69614258 18.79037109 1.51728516 18.08074219 1.33300781 17.34960938 C-0.04972385 11.51843244 -0.45695873 5.99123667 0 0 Z " fill="#E4A646" transform="translate(16,118)"/>
<path d="M0 0 C0.99 0.33 1.98 0.66 3 1 C-4.52271314 10.71113878 -11.73099373 18.20220712 -22 25 C-22.33 24.34 -22.66 23.68 -23 23 C-22.195625 22.7525 -21.39125 22.505 -20.5625 22.25 C-17.828919 21.27761141 -17.828919 21.27761141 -17.1875 18.875 C-17.125625 18.25625 -17.06375 17.6375 -17 17 C-16.071875 16.87625 -16.071875 16.87625 -15.125 16.75 C-12.83849644 16.21964484 -12.83849644 16.21964484 -12.0625 14.125 C-11 12 -11 12 -8.5 10.5625 C-5.52173734 8.70108584 -4.98174842 7.30224469 -4 4 C-3.01 4 -2.02 4 -1 4 C-0.67 2.68 -0.34 1.36 0 0 Z " fill="#DCA047" transform="translate(206,172)"/>
<path d="M0 0 C-0.75 1.9375 -0.75 1.9375 -2 4 C-4.125 4.75 -4.125 4.75 -6 5 C-6 5.66 -6 6.32 -6 7 C-6.66 7 -7.32 7 -8 7 C-8.24621094 7.58523437 -8.49242187 8.17046875 -8.74609375 8.7734375 C-10.19373768 11.34402017 -11.79242482 12.75455693 -14.0625 14.625 C-16.97875712 16.95485552 -16.97875712 16.95485552 -19 20 C-20.32 19.67 -21.64 19.34 -23 19 C-20.8211456 16.76224539 -18.63039024 14.53649507 -16.4375 12.3125 C-15.82841797 11.68666016 -15.21933594 11.06082031 -14.59179688 10.41601562 C-4.28484948 0 -4.28484948 0 0 0 Z " fill="#E4A543" transform="translate(62,29)"/>
<path d="M0 0 C0.33 0.66 0.66 1.32 1 2 C-0.24508701 5.62207131 -1.70601397 6.35300698 -5 8 C-5.680625 8.86625 -6.36125 9.7325 -7.0625 10.625 C-7.701875 11.40875 -8.34125 12.1925 -9 13 C-9.99 13 -10.98 13 -12 13 C-12 13.99 -12 14.98 -12 16 C-12.66 16 -13.32 16 -14 16 C-14 16.66 -14 17.32 -14 18 C-14.99 18 -15.98 18 -17 18 C-17 18.66 -17 19.32 -17 20 C-18.62626404 21.38232443 -20.2925002 22.71937515 -22 24 C-22.66 23.67 -23.32 23.34 -24 23 C-12.08823529 10.90955882 -12.08823529 10.90955882 -5.625 5.40234375 C-3.64902936 3.69711909 -1.80707351 1.88236824 0 0 Z " fill="#775A11" transform="translate(152,80)"/>
<path d="M0 0 C0.66 0.33 1.32 0.66 2 1 C-0.64 3.64 -3.28 6.28 -6 9 C-4.27370154 12.45259693 -3.16774527 14.07238601 -0.5234375 16.671875 C0.146875 17.33574219 0.8171875 17.99960938 1.5078125 18.68359375 C2.20648438 19.36550781 2.90515625 20.04742187 3.625 20.75 C4.33140625 21.44738281 5.0378125 22.14476563 5.765625 22.86328125 C7.50598703 24.58012488 9.25084981 26.29211832 11 28 C10.34 28.33 9.68 28.66 9 29 C8.34 28.319375 7.68 27.63875 7 26.9375 C4.04260507 23.96310855 0.86982073 21.26182171 -2.328125 18.55078125 C-4 17 -4 17 -5 15 C-5.99 14.67 -6.98 14.34 -8 14 C-8.5 10.9375 -8.5 10.9375 -8 7 C-5.61176729 4.28705144 -2.90748288 2.13518274 0 0 Z " fill="#DFA33A" transform="translate(43,100)"/>
<path d="M0 0 C0.33 0.66 0.66 1.32 1 2 C0.25 4.0625 0.25 4.0625 -1 6 C-1.99 6.33 -2.98 6.66 -4 7 C-5.34270821 8.99371825 -6.67653494 10.9934562 -8 13 C-8.66 13 -9.32 13 -10 13 C-10 13.66 -10 14.32 -10 15 C-11.32 15.33 -12.64 15.66 -14 16 C-14 16.66 -14 17.32 -14 18 C-15.98 18.66 -17.96 19.32 -20 20 C-15.8402325 14.8550244 -11.34102165 10.47507039 -6.3671875 6.11328125 C-4.16270675 4.1452547 -2.06753033 2.11040539 0 0 Z " fill="#72580F" transform="translate(192,43)"/>
<path d="M0 0 C1 3 1 3 -0.4375 6.1875 C-1.2109375 7.5796875 -1.2109375 7.5796875 -2 9 C-2.66 8.67 -3.32 8.34 -4 8 C-4.99 8.33 -5.98 8.66 -7 9 C-7.33 9.99 -7.66 10.98 -8 12 C-13.75 13.125 -13.75 13.125 -16 12 C-16.625 9.4375 -16.625 9.4375 -17 7 C-15.68 7.99 -14.36 8.98 -13 10 C-9.52224821 8.48446596 -7.0442016 6.4226544 -4.25 3.875 C-3.45078125 3.15054688 -2.6515625 2.42609375 -1.828125 1.6796875 C-0.92320313 0.84824219 -0.92320313 0.84824219 0 0 Z " fill="#6F5812" transform="translate(127,104)"/>
<path d="M0 0 C0.33 0.66 0.66 1.32 1 2 C-0.43257963 4.72872311 -1.81722366 6.81722366 -4 9 C-4.99 10.485 -4.99 10.485 -6 12 C-6.99 12 -7.98 12 -9 12 C-9.33 12.99 -9.66 13.98 -10 15 C-12.4375 16.75 -12.4375 16.75 -15 18 C-15.66 17.67 -16.32 17.34 -17 17 C-11.39 11.39 -5.78 5.78 0 0 Z " fill="#E7A234" transform="translate(134,169)"/>
<path d="M0 0 C3.17230524 0.57620032 4.76774133 1.40762045 6.98828125 3.73046875 C7.79616089 4.56058472 7.79616089 4.56058472 8.62036133 5.4074707 C9.17876709 5.99488037 9.73717285 6.58229004 10.3125 7.1875 C11.46686069 8.37423653 12.623093 9.55915557 13.78125 10.7421875 C14.33425781 11.30776367 14.88726562 11.87333984 15.45703125 12.45605469 C18.15863249 15.1593658 21.03827479 17.58929344 24 20 C23.67 20.99 23.34 21.98 23 23 C15.33333333 15.33333333 7.66666667 7.66666667 0 0 Z " fill="#785A10" transform="translate(55,129)"/>
<path d="M0 0 C0.515625 0.268125 1.03125 0.53625 1.5625 0.8125 C4.17196625 2.12476577 4.17196625 2.12476577 7.6875 3.4375 C8.780625 3.953125 9.87375 4.46875 11 5 C11.33 5.99 11.66 6.98 12 8 C13.93330603 9.09166275 13.93330603 9.09166275 16 10 C16.66 10.66 17.32 11.32 18 12 C18.66 12.33 19.32 12.66 20 13 C20 13.66 20 14.32 20 15 C15.47910453 13.4986895 12.01747445 10.97025458 8.3125 8.0625 C7.73177734 7.61970703 7.15105469 7.17691406 6.55273438 6.72070312 C3.8459925 4.62102243 1.91615066 2.87422599 0 0 Z " fill="#E0A03F" transform="translate(44,184)"/>
<path d="M0 0 C1.88414642 3.19457351 2.23819737 5.51502629 2.1953125 9.203125 C2.18886719 10.1828125 2.18242187 11.1625 2.17578125 12.171875 C2.15902344 13.18765625 2.14226562 14.2034375 2.125 15.25 C2.11597656 16.28125 2.10695312 17.3125 2.09765625 18.375 C2.07412011 20.91690287 2.04124023 23.4583328 2 26 C1.34 26 0.68 26 0 26 C-1.04865737 17.19127807 -0.84831606 8.82248707 0 0 Z " fill="#E69E36" transform="translate(224,90)"/>
<path d="M0 0 C3.35044034 1.11681345 4.14916343 2.0436896 6.375 4.6875 C7.28572266 5.76064453 7.28572266 5.76064453 8.21484375 6.85546875 C9.09849609 7.91701172 9.09849609 7.91701172 10 9 C10.51691406 9.61488281 11.03382812 10.22976562 11.56640625 10.86328125 C12.7171727 12.23698821 13.85958928 13.61768397 15 15 C11.17377257 13.4411666 8.74852621 11.04566418 6 8 C5.67 7.01 5.34 6.02 5 5 C2.03 4.505 2.03 4.505 -1 4 C-0.67 2.68 -0.34 1.36 0 0 Z " fill="#E4A339" transform="translate(82,156)"/>
<path d="M0 0 C0.6875 1.625 0.6875 1.625 1 4 C0.03685937 6.01800895 -0.96958573 8.01549844 -2 10 C-2.38935767 11.38642898 -2.74301732 12.78332211 -3.0625 14.1875 C-4 18 -4 18 -6 21 C-6.8784369 13.26975525 -3.39641019 6.79282038 0 0 Z " fill="#E0A445" transform="translate(27,66)"/>
<path d="M0 0 C0.66 0.33 1.32 0.66 2 1 C0.77015151 4.68954546 0.28759381 4.35620309 -3 6 C-4.70993434 7.6222454 -6.37347684 9.29413425 -8 11 C-9.66666667 12.66666667 -11.33333333 14.33333333 -13 16 C-13.66 15.67 -14.32 15.34 -15 15 C-10.05 10.05 -5.1 5.1 0 0 Z " fill="#DD9F37" transform="translate(208,98)"/>
<path d="M0 0 C1.2065625 0.0309375 1.2065625 0.0309375 2.4375 0.0625 C-1.17501516 4.62298012 -4.55047445 8.07915146 -9.5625 11.0625 C-4.50747154 0.10993833 -4.50747154 0.10993833 0 0 Z " fill="#E0A036" transform="translate(70.5625,73.9375)"/>
<path d="M0 0 C2.9375 0.75 2.9375 0.75 6 2 C6.6875 4.0625 6.6875 4.0625 7 6 C7.99 6.33 8.98 6.66 10 7 C10.33 8.98 10.66 10.96 11 13 C7.09674955 9.21155103 3.3553356 5.289295 0 1 C0 0.67 0 0.34 0 0 Z " fill="#DBA241" transform="translate(33,171)"/>
<path d="M0 0 C0.33 0.66 0.66 1.32 1 2 C-0.109375 4.49609375 -0.109375 4.49609375 -1.75 7.4375 C-2.28109375 8.40558594 -2.8121875 9.37367188 -3.359375 10.37109375 C-4.75899764 12.61382241 -6.03853093 14.25712839 -8 16 C-8 14.68 -8 13.36 -8 12 C-7.34 12 -6.68 12 -6 12 C-5.67 10.02 -5.34 8.04 -5 6 C-4.34 6 -3.68 6 -3 6 C-3 4.35 -3 2.7 -3 1 C-2.01 0.67 -1.02 0.34 0 0 Z " fill="#E1A442" transform="translate(217,156)"/>
<path d="M0 0 C0 5.13226977 -3.31996098 8.28905012 -6.75 11.875 C-7.4925 12.57625 -8.235 13.2775 -9 14 C-9.99 13.67 -10.98 13.34 -12 13 C-11.38125 12.773125 -10.7625 12.54625 -10.125 12.3125 C-7.80855182 11.17653452 -7.80855182 11.17653452 -7.125 8.75 C-5.53902058 4.87316141 -3.04948226 2.85060298 0 0 Z " fill="#E9A22F" transform="translate(179,126)"/>
<path d="M0 0 C0.66 0.33 1.32 0.66 2 1 C-1.3 4.3 -4.6 7.6 -8 11 C-8.66 9.68 -9.32 8.36 -10 7 C-9.01 7 -8.02 7 -7 7 C-6.67 6.01 -6.34 5.02 -6 4 C-3.99878825 1.63493157 -3.03200339 1.0106678 0 0 Z " fill="#765A0F" transform="translate(201,103)"/>
<path d="M0 0 C0.99 0.66 1.98 1.32 3 2 C-0.3 4.97 -3.6 7.94 -7 11 C-7.33 9.68 -7.66 8.36 -8 7 C-6.68 6.34 -5.36 5.68 -4 5 C-4 4.34 -4 3.68 -4 3 C-2 1.375 -2 1.375 0 0 Z " fill="#765910" transform="translate(212,91)"/>
<path d="M0 0 C0.33 0 0.66 0 1 0 C1 1.65 1 3.3 1 5 C0.01 5 -0.98 5 -2 5 C-2.268125 5.70125 -2.53625 6.4025 -2.8125 7.125 C-4.07815076 10.18920711 -5.36105848 13.11546292 -7 16 C-7.99 16.33 -8.98 16.66 -10 17 C-8.5137853 12.80591769 -6.41721984 9.37332677 -3.9375 5.6875 C-3.22464844 4.61886719 -2.51179688 3.55023438 -1.77734375 2.44921875 C-1.19082031 1.64097656 -0.60429688 0.83273438 0 0 Z " fill="#E2A74B" transform="translate(38,49)"/>
<path d="M0 0 C-1.19302346 3.57907038 -1.77022504 4.1428794 -5 6 C-7.97224774 6.83017954 -10.96468478 7.44871412 -14 8 C-10.67417683 4.11987297 -5.34770586 0 0 0 Z " fill="#E5A84A" transform="translate(76,21)"/>
<path d="M0 0 C4.91935902 4.11619836 9.52647956 8.40410362 14 13 C11 13 11 13 9 11.0625 C8.34 10.381875 7.68 9.70125 7 9 C6.01 8.67 5.02 8.34 4 8 C3.67 7.01 3.34 6.02 3 5 C2.484375 4.484375 1.96875 3.96875 1.4375 3.4375 C0.963125 2.963125 0.48875 2.48875 0 2 C0 1.34 0 0.68 0 0 Z " fill="#E1A53C" transform="translate(63,137)"/>
<path d="M0 0 C0.33 0.66 0.66 1.32 1 2 C-0.3125 4.625 -0.3125 4.625 -2 7 C-2.66 7 -3.32 7 -4 7 C-4 7.66 -4 8.32 -4 9 C-4.61875 9.144375 -5.2375 9.28875 -5.875 9.4375 C-8.03258322 9.93152225 -8.03258322 9.93152225 -10 11 C-8.55218207 7.55571735 -6.72305391 5.63869038 -3.875 3.25 C-3.15054688 2.63640625 -2.42609375 2.0228125 -1.6796875 1.390625 C-0.84824219 0.70226562 -0.84824219 0.70226562 0 0 Z " fill="#554E28" transform="translate(207,29)"/>
<path d="M0 0 C3.21524305 1.40844718 5.32183868 3.10344786 7.75 5.625 C8.67039062 6.57246094 8.67039062 6.57246094 9.609375 7.5390625 C10.29773438 8.26222656 10.29773438 8.26222656 11 9 C9.68 9.33 8.36 9.66 7 10 C6.67 8.68 6.34 7.36 6 6 C5.01 6 4.02 6 3 6 C0 2.66666667 0 2.66666667 0 0 Z " fill="#DA9D37" transform="translate(97,171)"/>
<path d="M0 0 C0.66 0 1.32 0 2 0 C0.55575365 3.23861303 -1.25772247 5.61969163 -3.625 8.25 C-4.25664062 8.95640625 -4.88828125 9.6628125 -5.5390625 10.390625 C-6.26222656 11.18726562 -6.26222656 11.18726562 -7 12 C-8.32 11.67 -9.64 11.34 -11 11 C-10.28972656 10.37351562 -9.57945312 9.74703125 -8.84765625 9.1015625 C-7.46900391 7.87566406 -7.46900391 7.87566406 -6.0625 6.625 C-5.14597656 5.81289062 -4.22945312 5.00078125 -3.28515625 4.1640625 C-0.96398605 2.21290653 -0.96398605 2.21290653 0 0 Z " fill="#DEA036" transform="translate(191,114)"/>
<path d="M0 0 C0.99 0.66 1.98 1.32 3 2 C2.67 2.66 2.34 3.32 2 4 C1.01 3.67 0.02 3.34 -1 3 C-1.226875 3.598125 -1.45375 4.19625 -1.6875 4.8125 C-3.3611297 7.60188284 -5.08817726 8.6168842 -8 10 C-8.66 9.67 -9.32 9.34 -10 9 C-6.7 6.03 -3.4 3.06 0 0 Z " fill="#504B2A" transform="translate(218,19)"/>
<path d="M0 0 C0.66 0.33 1.32 0.66 2 1 C1.67 2.32 1.34 3.64 1 5 C0.01 5 -0.98 5 -2 5 C-3.89739368 6.5334075 -3.89739368 6.5334075 -5.6875 8.5 C-6.31011719 9.1496875 -6.93273437 9.799375 -7.57421875 10.46875 C-8.27998047 11.22671875 -8.27998047 11.22671875 -9 12 C-9.66 11.67 -10.32 11.34 -11 11 C-7.37 7.37 -3.74 3.74 0 0 Z " fill="#DBA340" transform="translate(222,85)"/>
<path d="M0 0 C1.32 0.33 2.64 0.66 4 1 C0.7 4.3 -2.6 7.6 -6 11 C-6.33 10.34 -6.66 9.68 -7 9 C-5.73958325 5.21874975 -4.31129455 4.98677673 -1 3 C-0.67 2.01 -0.34 1.02 0 0 Z " fill="#74580D" transform="translate(126,173)"/>
<path d="M0 0 C0 3.73417994 -0.68281923 5.0848371 -3 8 C-6.6875 9.3125 -6.6875 9.3125 -10 10 C-6.92118304 6.12948725 -3.99926986 2.97088618 0 0 Z " fill="#7F6015" transform="translate(163,70)"/>
<path d="M0 0 C9.59453303 5.96583144 9.59453303 5.96583144 13 11 C10 11 10 11 7.625 8.6875 C6.75875 7.800625 5.8925 6.91375 5 6 C4.071875 5.46375 3.14375 4.9275 2.1875 4.375 C1.465625 3.92125 0.74375 3.4675 0 3 C0 2.01 0 1.02 0 0 Z " fill="#D9A347" transform="translate(183,30)"/>
<path d="M0 0 C1.31611677 0.95336021 2.62778961 1.91285774 3.9375 2.875 C4.66839844 3.40867188 5.39929688 3.94234375 6.15234375 4.4921875 C8 6 8 6 9 8 C7.68 8 6.36 8 5 8 C4.67 8.66 4.34 9.32 4 10 C2.66666667 6.66666667 1.33333333 3.33333333 0 0 Z " fill="#E2A134" transform="translate(108,181)"/>
<path d="M0 0 C0 3 0 3 -2 6 C-4.89505655 7.90464247 -7.89961475 9.46300051 -11 11 C-7.6189962 6.86378916 -4.33409466 3.18683431 0 0 Z " fill="#7E5C0C" transform="translate(51,95)"/>
<path d="M0 0 C0.598125 0.226875 1.19625 0.45375 1.8125 0.6875 C1.8125 1.6775 1.8125 2.6675 1.8125 3.6875 C1.255625 3.81125 0.69875 3.935 0.125 4.0625 C-2.40864364 4.74726855 -4.76671032 5.67883763 -7.1875 6.6875 C-3.9375 -0.5625 -3.9375 -0.5625 0 0 Z " fill="#695415" transform="translate(73.1875,76.3125)"/>
<path d="M0 0 C0.33 0.66 0.66 1.32 1 2 C1.66 2 2.32 2 3 2 C3.99 5.3 4.98 8.6 6 12 C3.05248333 9.25576034 0.77226322 6.63780345 -1 3 C-0.67 2.01 -0.34 1.02 0 0 Z " fill="#E0A046" transform="translate(27,158)"/>
<path d="M0 0 C1 2 1 2 1.3125 4.375 C2.15018551 7.57343559 3.54177921 8.85896899 6 11 C5.67 11.66 5.34 12.32 5 13 C2.36 10.36 -0.28 7.72 -3 5 C-1 1 -1 1 0 0 Z " fill="#745207" transform="translate(39,106)"/>
<path d="M0 0 C0.33 0.66 0.66 1.32 1 2 C-0.87577357 6.06417607 -2.93582393 8.12422643 -7 10 C-7.66 9.67 -8.32 9.34 -9 9 C-6.03 6.03 -3.06 3.06 0 0 Z " fill="#DB9C34" transform="translate(134,169)"/>
<path d="M0 0 C0.99 0.33 1.98 0.66 3 1 C0.03 3.97 -2.94 6.94 -6 10 C-6.33 9.01 -6.66 8.02 -7 7 C-6 5 -6 5 -4.0625 4.0625 C-1.68028507 3.04654078 -1.68028507 3.04654078 0 0 Z " fill="#7C5B0D" transform="translate(154,147)"/>
<path d="M0 0 C0.99 0.33 1.98 0.66 3 1 C-0.3 3.97 -3.6 6.94 -7 10 C-7.33 9.01 -7.66 8.02 -8 7 C-2.25 2 -2.25 2 0 2 C0 1.34 0 0.68 0 0 Z " fill="#7A5B0E" transform="translate(139,162)"/>
<path d="M0 0 C2.625 -0.1875 2.625 -0.1875 5 0 C3.75023244 3.65316671 3.32901247 4.78065836 0 7 C0 6.01 0 5.02 0 4 C-0.66 3.67 -1.32 3.34 -2 3 C-1.34 2.01 -0.68 1.02 0 0 Z " fill="#F1A52D" transform="translate(57,82)"/>
<path d="M0 0 C1.98 0 3.96 0 6 0 C2.80009492 2.74277578 -0.00499382 4.6302836 -4 6 C-4 5.01 -4 4.02 -4 3 C-3.01 3 -2.02 3 -1 3 C-0.67 2.01 -0.34 1.02 0 0 Z " fill="#E1A23E" transform="translate(177,197)"/>
<path d="M0 0 C0.99 0.33 1.98 0.66 3 1 C-1.625 6.875 -1.625 6.875 -5 8 C-4.67 6.68 -4.34 5.36 -4 4 C-3.01 4 -2.02 4 -1 4 C-0.67 2.68 -0.34 1.36 0 0 Z " fill="#E7A541" transform="translate(206,172)"/>
<path d="M0 0 C0.66 0.33 1.32 0.66 2 1 C-0.97 3.97 -3.94 6.94 -7 10 C-7.33 9.01 -7.66 8.02 -8 7 C-5.42215154 4.35247996 -3.08351902 2.05567935 0 0 Z " fill="#DFA239" transform="translate(150,80)"/>
<path d="M0 0 C1.32 0.33 2.64 0.66 4 1 C1.69 3.31 -0.62 5.62 -3 8 C-3.33 7.01 -3.66 6.02 -4 5 C-2.0625 2.3125 -2.0625 2.3125 0 0 Z " fill="#7A5B17" transform="translate(219,84)"/>
<path d="M0 0 C1.37562854 1.28965176 2.70766393 2.62689293 4 4 C4 4.66 4 5.32 4 6 C1.5 7.625 1.5 7.625 -1 9 C-0.67 6.03 -0.34 3.06 0 0 Z " fill="#EAA333" transform="translate(190,37)"/>
<path d="M0 0 C3.68754757 0.49831724 5.60490662 1.10067643 8 4 C7.67 4.66 7.34 5.32 7 6 C5.02 6 3.04 6 1 6 C1.33 4.35 1.66 2.7 2 1 C1.34 0.67 0.68 0.34 0 0 Z " fill="#EEA13A" transform="translate(162,19)"/>
<path d="M0 0 C4 0 4 0 6.3125 1.75 C8 4 8 4 7.75 6.25 C7.5025 6.8275 7.255 7.405 7 8 C6.401875 7.236875 5.80375 6.47375 5.1875 5.6875 C3.53040668 3.6516425 1.89702326 1.8021721 0 0 Z " fill="#7D5F16" transform="translate(85,158)"/>
<path d="M0 0 C3.94139078 1.66751148 6.7892812 4.22710649 10 7 C9.67 7.99 9.34 8.98 9 10 C7.49702124 8.52386015 5.99768715 7.04400843 4.5 5.5625 C3.6646875 4.73878906 2.829375 3.91507812 1.96875 3.06640625 C0 1 0 1 0 0 Z " fill="#795A0B" transform="translate(45,119)"/>
<path d="M0 0 C1.32 0 2.64 0 4 0 C4 2.31 4 4.62 4 7 C3.34 7 2.68 7 2 7 C1.34 4.69 0.68 2.38 0 0 Z " fill="#F19F2F" transform="translate(31,164)"/>
<path d="M0 0 C0.99 0.33 1.98 0.66 3 1 C2.0479279 2.00596297 1.08812654 3.00461563 0.125 4 C-0.40867187 4.556875 -0.94234375 5.11375 -1.4921875 5.6875 C-3 7 -3 7 -5 7 C-5 6.01 -5 5.02 -5 4 C-3.35 3.34 -1.7 2.68 0 2 C0 1.34 0 0.68 0 0 Z " fill="#DB9F37" transform="translate(54,89)"/>
<path d="M0 0 C0.99 0 1.98 0 3 0 C1.60667426 3.36720387 0.0210714 4.9859524 -3 7 C-3 3.47190093 -2.35723489 2.53184488 0 0 Z " fill="#806115" transform="translate(188,114)"/>
<path d="M0 0 C0.66 0.33 1.32 0.66 2 1 C0.35 2.65 -1.3 4.3 -3 6 C-4.32 5.34 -5.64 4.68 -7 4 C-7 3.67 -7 3.34 -7 3 C-5.35 3 -3.7 3 -2 3 C-2 2.34 -2 1.68 -2 1 C-1.34 0.67 -0.68 0.34 0 0 Z " fill="#DAA33D" transform="translate(119,109)"/>
<path d="M0 0 C1.485 0.99 1.485 0.99 3 2 C2.6875 3.875 2.6875 3.875 2 6 C1.01 6.66 0.02 7.32 -1 8 C-1.125 2.25 -1.125 2.25 0 0 Z " fill="#585326" transform="translate(233,68)"/>
<path d="M0 0 C0.66 0 1.32 0 2 0 C1.6875 1.875 1.6875 1.875 1 4 C0.01 4.66 -0.98 5.32 -2 6 C-2.33 4.68 -2.66 3.36 -3 2 C-2.01 2 -1.02 2 0 2 C0 1.34 0 0.68 0 0 Z " fill="#565427" transform="translate(227,76)"/>
<path d="" fill="#FFFFFF" transform="translate(0,0)"/>
<path d="" fill="#FFFFFF" transform="translate(0,0)"/>
<path d="" fill="#FFFFFF" transform="translate(0,0)"/>
<path d="" fill="#FFFFFF" transform="translate(0,0)"/>
</svg>
